<svg width="28" height="28" viewBox="0 0 28 28" fill="none" xmlns="http://www.w3.org/2000/svg">
<path d="M11.0833 4.0835L7.58329 7.00016L6.41663 10.5002L9.33329 17.5002L14 24.5002L18.6666 17.5002L21.5833 10.5002L19.8333 7.00016L16.9166 4.0835H11.0833Z" fill="#B8C1B2"/>
<path d="M14 2.3335C9.48504 2.3335 5.83337 5.98516 5.83337 10.5002C5.83337 16.6252 14 25.6668 14 25.6668C14 25.6668 22.1667 16.6252 22.1667 10.5002C22.1667 5.98516 18.515 2.3335 14 2.3335ZM8.16671 10.5002C8.16671 7.28016 10.78 4.66683 14 4.66683C17.22 4.66683 19.8334 7.28016 19.8334 10.5002C19.8334 13.8602 16.4734 18.8885 14 22.0268C11.5734 18.9118 8.16671 13.8252 8.16671 10.5002Z" fill="#424242"/>
<path d="M14 13.4168C15.6109 13.4168 16.9167 12.111 16.9167 10.5002C16.9167 8.88933 15.6109 7.5835 14 7.5835C12.3892 7.5835 11.0834 8.88933 11.0834 10.5002C11.0834 12.111 12.3892 13.4168 14 13.4168Z" fill="#424242"/>
</svg>
