<svg width="393" height="196" viewBox="0 0 393 196" fill="none" xmlns="http://www.w3.org/2000/svg">
<path d="M-196 179.11C-181.961 180.006 -168.183 180.883 -154.072 180.977C-100.044 181.339 -46.2191 181.999 7.62591 176.723C69.6589 170.645 131.487 161.379 190.195 140.149C240.496 121.96 287.916 96.9126 333.115 68.818C350.465 58.0333 369.361 46.0941 382.035 29.8061C384.288 26.4503 386.873 19.9006 382.035 12.5381C379.153 8.15297 374.389 5.38937 369.268 4.18583C359.375 1.86046 345.524 1.97245 335.456 2.01588C317.977 2.09129 303.395 3.07946 286.128 5.92372C265.454 9.32939 237.932 17.5185 221.091 29.9283C210.924 37.4195 204.236 45.7132 201.69 49.5196C198.899 53.6938 196.546 58.6184 195.943 63.6821C195.281 69.2396 197.189 75.3622 199.545 80.3348C206.822 95.6911 220.877 106.255 235.513 114.418C258.152 127.046 282.593 136.469 306.867 145.545C343.716 159.322 386.179 151.849 424.419 161.291C448.478 167.231 472.694 172.241 497.044 176.88C521.535 181.545 546.044 186.489 570.755 189.927C601.033 194.14 631.494 193.999 662 193.999" stroke="#CAD1C6" stroke-width="3" stroke-linecap="round"/>
</svg>
